<?xml version="1.0" encoding="utf-8"?>
<!-- Generator: Adobe Illustrator 22.1.0, SVG Export Plug-In . SVG Version: 6.00 Build 0)  -->
<svg version="1.1" id="Layer_1" xmlns="http://www.w3.org/2000/svg" xmlns:xlink="http://www.w3.org/1999/xlink" x="0px" y="0px"
	 viewBox="0 0 841.9 595.3" style="enable-background:new 0 0 841.9 595.3;" xml:space="preserve">
<style type="text/css">
	.st0{fill:#808285;}
	.st1{fill:#CC2431;}
</style>
<g>
	<g>
		<path class="st0" d="M49.8,496.1H17v83.1h32.8c12.4,0,22.8-4,30.1-11.4c7.5-7.6,11.6-18.8,11.4-30.8
			C91,518.1,79.9,496.1,49.8,496.1z M33.8,512.3h16c17.7,0,24.4,12.7,24.7,24.6c0.2,7.7-2.2,14.6-6.7,19.2c-4.4,4.5-10.4,6.7-18,6.7
			h-16V512.3z"/>
		<rect x="159.4" y="496.1" class="st0" width="16.9" height="83.1"/>
		<path class="st0" d="M284.7,545.8h20.8v13.2c-5.5,4.3-10.6,6.1-17.6,6.1c-20.1,0-27.3-13.7-27.3-26.4c0-17.2,11.2-29.2,27.3-29.2
			c7.2,0,15.1,3.1,20.2,7.9l0.6,0.5l10.7-10.9l-0.6-0.6c-8.3-8.2-19.2-12.7-30.8-12.7c-30.3,0-43.9,22.6-43.9,44.9
			c0,20.5,11.5,42.4,43.9,42.4c13.7,0,24.2-4.7,33.1-14.9l0.2-0.2v-35.5h-36.5V545.8z"/>
		<rect x="390.4" y="496.1" class="st0" width="16.9" height="83.1"/>
		<polygon class="st0" points="531.9,545.1 493.4,496.4 493.1,496.1 479.5,496.1 479.5,579.2 496.5,579.2 496.5,525.8 537.9,579 
			539.3,580.8 539.3,579.2 548.9,579.2 548.9,496 531.9,496 		"/>
		<polygon class="st0" points="619.3,579.2 681.9,579.2 681.9,562.5 636.1,562.5 636.1,545.7 680.2,545.7 680.2,529.8 636.1,529.8 
			636.1,512.6 681.9,512.6 681.9,496.1 619.3,496.1 		"/>
		<polygon class="st0" points="796.7,537.2 824.1,497.9 824.1,496.1 806,496.1 786,525.9 766.1,496.1 748,496.1 748,497.9 
			775.3,537.2 747.2,577.7 747.2,579.2 765.6,579.2 786,549.3 806.5,579.2 824.9,579.2 824.9,577.7 		"/>
	</g>
	<g>
		<path class="st1" d="M795.5,83.5c3.4,4.3,6.1,9.2,9,14c13.1,21.4,20,44.3,20.1,69.2c0.2,31,0.9,62.1-0.4,93.1
			c-2,45.1-22.5,80.2-60.6,105c-24.3,15.8-51.2,20.9-79.7,20.6c-30.2-0.3-60.5-0.1-90.7-0.1c-30.2,0-60.5,0-90.7,0
			c-21.4,0-42.8-0.1-64.2,0.1c-52.6,0.4-93.1-21.5-120.3-66.5c-12.9-21.4-17.4-45.3-17.2-70.1c0.2-25.3,0-50.6,0-75.8
			c0-1.8,0.2-3.7,0.3-5.3c29.1,0,57.9,0,87.1-0.1c0,20.9-0.3,41.9,0,62.8c0.2,12.1-0.2,24.5,2.3,36.3c3.6,17.1,19.5,29.9,37,30.8
			c17.7,0.9,35.4,0.6,53.1,0.7c27.3,0.1,54.6-0.1,81.8-0.1c30.8,0,61.6,0,92.4-0.1c14.9,0,29.9,0.2,44.8-0.7
			c18.6-1.1,36.2-18.2,37.1-36.8c1.1-22.9,0.6-45.8,0.7-68.7c0-8.9,0.3-17.8-0.2-26.6c-1.5-24.5-19.9-41.8-44.3-41.9
			c-29.3-0.1-58.6,0-87.9,0.2c-4.6,0-5.5-2.6-6.4-5.9c-7.7-27-21.8-50.3-41-70.7c-3.1-3.3-6.5-6.5-10.6-10.7
			c10.2-0.1,19.3-0.2,28.3-0.2c33.6,0,67.2,0.3,100.7-0.1c27.3-0.3,53,3.7,78.4,15.2c8.3,3.7,15.5,8.2,22.4,13.7
			C783.6,70.2,789.9,76.6,795.5,83.5z"/>
		<path class="st1" d="M540.8,232.2c-29.2,0-57.8,0-87.5,0c0.2-12.1,0.4-24.4,0.5-36.7c0.1-16.1-0.3-32.1,0.1-48.2
			c0.5-24.9-18.6-46.5-48.6-46c-31,0.6-61.9,0.1-92.9,0.1c-30.2,0-60.5,0.1-90.7,0.2c-23.8,0-47.6,0.1-71.4-0.1
			c-25.1-0.1-44.6,16.9-45.3,41.9c-0.9,30.3-0.9,60.6,0,90.9c0.7,24.8,19.9,42.1,44.6,42.1c29.1,0,58.3-0.1,87.4-0.2
			c3.2,0,5,0.8,6,4.2c5.2,33.6,10.1,62.4,35.1,84.7c-9.8,0.1-15.2,0.1-24.3,0.1c-33.4,0-53.9-1.9-87.3-1.5
			c-26.7,0.3-52.9-1.3-77-14.2c-46.4-24.8-70.6-63.8-72-116.2c-0.9-31.4-0.7-62.8,0.2-94.2C19.5,74.3,72.9,19,137.7,15.1
			c24.1-1.5,48.3-0.6,72.5-0.7c33-0.1,66-0.1,99.1,0c37.6,0.1,75.3-0.6,112.9,0.9c25.8,1.1,49.1,11.3,69.3,27.8
			c34.1,27.8,49.9,64,49.7,107.6c-0.1,25.5,0,50.9,0,76.4C541.1,228.7,540.9,230.3,540.8,232.2z"/>
	</g>
</g>
</svg>
